REM DIRINDEX 1\2,1\3,1\4,1\5
REM DIRNAME folder01,folder02,folder03,folder04,folder05
TITLE ""
FILE "1800_108.mp3" MP3
  TRACK 01 AUDIO
    TITLE "2:cjc044_3033"
    INDEX 01 00:00:00
  TRACK 02 AUDIO
    TITLE "0:"
    INDEX 01 00:01:05
  TRACK 03 AUDIO
    TITLE "3:cjc044_3034"
    INDEX 01 00:01:58
  TRACK 04 AUDIO
    TITLE "0:"
    INDEX 01 00:02:57
  TRACK 05 AUDIO
    TITLE "4:cjc044_3035"
    INDEX 01 00:03:35
  TRACK 06 AUDIO
    TITLE "0:"
    INDEX 01 00:04:52
  TRACK 07 AUDIO
    TITLE "5:cjc044_3036"
    INDEX 01 00:05:34
  TRACK 08 AUDIO
    TITLE "0:"
    INDEX 01 00:07:62
  TRACK 09 AUDIO
    TITLE "2:cjc044_3037"
    INDEX 01 00:09:45
  TRACK 10 AUDIO
    TITLE "0:"
    INDEX 01 00:10:61
  TRACK 11 AUDIO
    TITLE "3:cjc044_3038"
    INDEX 01 00:11:48
  TRACK 12 AUDIO
    TITLE "0:"
    INDEX 01 00:12:67
  TRACK 13 AUDIO
    TITLE "4:cjc044_3039"
    INDEX 01 00:13:47
  TRACK 14 AUDIO
    TITLE "0:"
    INDEX 01 00:14:64
  TRACK 15 AUDIO
    TITLE "5:cjc044_3040"
    INDEX 01 00:15:42
  TRACK 16 AUDIO
    TITLE "0:"
    INDEX 01 00:18:62
  TRACK 17 AUDIO
    TITLE "2:cjc044_3041"
    INDEX 01 00:20:43
  TRACK 18 AUDIO
    TITLE "0:"
    INDEX 01 00:21:62
  TRACK 19 AUDIO
    TITLE "3:cjc044_3042"
    INDEX 01 00:22:42
  TRACK 20 AUDIO
    TITLE "0:"
    INDEX 01 00:23:51
  TRACK 21 AUDIO
    TITLE "4:cjc044_3043"
    INDEX 01 00:24:37
  TRACK 22 AUDIO
    TITLE "0:"
    INDEX 01 00:25:58
  TRACK 23 AUDIO
    TITLE "5:cjc044_3044"
    INDEX 01 00:26:28
  TRACK 24 AUDIO
    TITLE "0:"
    INDEX 01 00:29:19
  TRACK 25 AUDIO
    TITLE "2:cjc044_3045"
    INDEX 01 00:31:02
  TRACK 26 AUDIO
    TITLE "0:"
    INDEX 01 00:32:11
  TRACK 27 AUDIO
    TITLE "3:cjc044_3046"
    INDEX 01 00:32:72
  TRACK 28 AUDIO
    TITLE "0:"
    INDEX 01 00:34:00
  TRACK 29 AUDIO
    TITLE "4:cjc044_3047"
    INDEX 01 00:34:55
  TRACK 30 AUDIO
    TITLE "0:"
    INDEX 01 00:35:66
  TRACK 31 AUDIO
    TITLE "5:cjc044_3048"
    INDEX 01 00:36:52
  TRACK 32 AUDIO
    TITLE "0:"
    INDEX 01 00:39:64
  TRACK 33 AUDIO
    TITLE "2:cjc044_3049"
    INDEX 01 00:41:42
  TRACK 34 AUDIO
    TITLE "0:"
    INDEX 01 00:42:51
  TRACK 35 AUDIO
    TITLE "3:cjc044_3050"
    INDEX 01 00:43:33
  TRACK 36 AUDIO
    TITLE "0:"
    INDEX 01 00:44:22
  TRACK 37 AUDIO
    TITLE "4:cjc044_3051"
    INDEX 01 00:45:08
  TRACK 38 AUDIO
    TITLE "0:"
    INDEX 01 00:46:19
  TRACK 39 AUDIO
    TITLE "5:cjc044_3052"
    INDEX 01 00:47:01
  TRACK 40 AUDIO
    TITLE "0:"
    INDEX 01 00:50:23
  TRACK 41 AUDIO
    TITLE "2:cjc044_3053"
    INDEX 01 00:51:73
  TRACK 42 AUDIO
    TITLE "0:"
    INDEX 01 00:53:17
  TRACK 43 AUDIO
    TITLE "3:cjc044_3054"
    INDEX 01 00:53:74
  TRACK 44 AUDIO
    TITLE "0:"
    INDEX 01 00:55:12
  TRACK 45 AUDIO
    TITLE "4:cjc044_3055"
    INDEX 01 00:55:63
  TRACK 46 AUDIO
    TITLE "0:"
    INDEX 01 00:57:07
  TRACK 47 AUDIO
    TITLE "5:cjc044_3056"
    INDEX 01 00:57:60
  TRACK 48 AUDIO
    TITLE "0:"
    INDEX 01 01:00:47
  TRACK 49 AUDIO
    TITLE "2:cjc044_3057"
    INDEX 01 01:02:30
  TRACK 50 AUDIO
    TITLE "0:"
    INDEX 01 01:03:57
  TRACK 51 AUDIO
    TITLE "3:cjc044_3058"
    INDEX 01 01:04:39
  TRACK 52 AUDIO
    TITLE "0:"
    INDEX 01 01:05:58
  TRACK 53 AUDIO
    TITLE "4:cjc044_3059"
    INDEX 01 01:06:45
  TRACK 54 AUDIO
    TITLE "0:"
    INDEX 01 01:07:70
  TRACK 55 AUDIO
    TITLE "5:cjc044_3060"
    INDEX 01 01:08:46
  TRACK 56 AUDIO
    TITLE "0:"
    INDEX 01 01:12:09
  TRACK 57 AUDIO
    TITLE "2:cjc044_3061"
    INDEX 01 01:13:71
  TRACK 58 AUDIO
    TITLE "0:"
    INDEX 01 01:15:03
  TRACK 59 AUDIO
    TITLE "3:cjc044_3062"
    INDEX 01 01:15:62
  TRACK 60 AUDIO
    TITLE "0:"
    INDEX 01 01:16:48
  TRACK 61 AUDIO
    TITLE "4:cjc044_3063"
    INDEX 01 01:17:33
  TRACK 62 AUDIO
    TITLE "0:"
    INDEX 01 01:18:39
  TRACK 63 AUDIO
    TITLE "5:cjc044_3064"
    INDEX 01 01:19:17
  TRACK 64 AUDIO
    TITLE "0:"
    INDEX 01 01:22:11
  TRACK 65 AUDIO
    TITLE "2:cjc044_3065"
    INDEX 01 01:23:69
  TRACK 66 AUDIO
    TITLE "0:"
    INDEX 01 01:25:00
  TRACK 67 AUDIO
    TITLE "3:cjc044_3066"
    INDEX 01 01:25:57
  TRACK 68 AUDIO
    TITLE "0:"
    INDEX 01 01:26:74
  TRACK 69 AUDIO
    TITLE "4:cjc044_3067"
    INDEX 01 01:27:53
  TRACK 70 AUDIO
    TITLE "0:"
    INDEX 01 01:28:57
  TRACK 71 AUDIO
    TITLE "5:cjc044_3068"
    INDEX 01 01:29:41
  TRACK 72 AUDIO
    TITLE "0:"
    INDEX 01 01:33:17
  TRACK 73 AUDIO
    TITLE "2:cjc044_3069"
    INDEX 01 01:35:02
  TRACK 74 AUDIO
    TITLE "0:"
    INDEX 01 01:36:39
  TRACK 75 AUDIO
    TITLE "3:cjc044_3070"
    INDEX 01 01:37:28
  TRACK 76 AUDIO
    TITLE "0:"
    INDEX 01 01:39:31
  TRACK 77 AUDIO
    TITLE "4:cjc044_3071"
    INDEX 01 01:40:17
  TRACK 78 AUDIO
    TITLE "0:"
    INDEX 01 01:41:52
  TRACK 79 AUDIO
    TITLE "5:cjc044_3072"
    INDEX 01 01:42:28
  TRACK 80 AUDIO
    TITLE "0:"
    INDEX 01 01:45:73
